<svg xmlns="http://www.w3.org/2000/svg" xmlns:xlink="http://www.w3.org/1999/xlink" width="40" zoomAndPan="magnify" viewBox="0 0 30 30.000001" height="40" preserveAspectRatio="xMidYMid meet" version="1.0"><defs><clipPath id="2d9450ef4f"><path d="M 5.457031 4.972656 L 24.328125 4.972656 L 24.328125 23.84375 L 5.457031 23.84375 Z M 5.457031 4.972656 " clip-rule="nonzero"/></clipPath></defs><g clip-path="url(#2d9450ef4f)"><path fill="#78bc51" d="M 15 4.972656 C 15.625 4.972656 16.246094 5.03125 16.859375 5.15625 C 17.476562 5.277344 18.070312 5.457031 18.652344 5.699219 C 19.230469 5.9375 19.78125 6.230469 20.300781 6.582031 C 20.820312 6.929688 21.304688 7.324219 21.746094 7.765625 C 22.191406 8.210938 22.585938 8.691406 22.933594 9.214844 C 23.28125 9.734375 23.574219 10.285156 23.816406 10.863281 C 24.054688 11.441406 24.238281 12.039062 24.359375 12.652344 C 24.480469 13.269531 24.542969 13.886719 24.542969 14.515625 C 24.542969 15.140625 24.480469 15.761719 24.359375 16.375 C 24.238281 16.992188 24.054688 17.589844 23.816406 18.167969 C 23.574219 18.746094 23.28125 19.296875 22.933594 19.816406 C 22.585938 20.339844 22.191406 20.820312 21.746094 21.261719 C 21.304688 21.707031 20.820312 22.101562 20.300781 22.449219 C 19.78125 22.796875 19.230469 23.09375 18.652344 23.332031 C 18.070312 23.570312 17.476562 23.753906 16.859375 23.875 C 16.246094 23.996094 15.625 24.058594 15 24.058594 C 14.371094 24.058594 13.75 23.996094 13.136719 23.875 C 12.523438 23.753906 11.925781 23.570312 11.347656 23.332031 C 10.769531 23.09375 10.21875 22.796875 9.695312 22.449219 C 9.175781 22.101562 8.695312 21.707031 8.25 21.261719 C 7.808594 20.820312 7.410156 20.339844 7.0625 19.816406 C 6.714844 19.296875 6.421875 18.746094 6.183594 18.167969 C 5.941406 17.589844 5.761719 16.992188 5.640625 16.375 C 5.515625 15.761719 5.457031 15.140625 5.457031 14.515625 C 5.457031 13.886719 5.515625 13.269531 5.640625 12.652344 C 5.761719 12.039062 5.941406 11.441406 6.183594 10.863281 C 6.421875 10.285156 6.714844 9.734375 7.0625 9.214844 C 7.410156 8.691406 7.808594 8.210938 8.25 7.765625 C 8.695312 7.324219 9.175781 6.929688 9.695312 6.582031 C 10.21875 6.230469 10.769531 5.9375 11.347656 5.699219 C 11.925781 5.457031 12.523438 5.277344 13.136719 5.15625 C 13.75 5.03125 14.371094 4.972656 15 4.972656 Z M 15 4.972656 " fill-opacity="1" fill-rule="nonzero"/></g><path fill="#ffffff" d="M 17.996094 11.457031 C 18.140625 11.320312 18.328125 11.246094 18.523438 11.25 C 18.722656 11.25 18.910156 11.328125 19.050781 11.464844 C 19.1875 11.601562 19.269531 11.789062 19.277344 11.984375 C 19.28125 12.179688 19.210938 12.371094 19.078125 12.515625 L 15.050781 17.554688 C 14.980469 17.628906 14.894531 17.6875 14.804688 17.730469 C 14.710938 17.769531 14.609375 17.792969 14.507812 17.796875 C 14.40625 17.796875 14.304688 17.777344 14.210938 17.742188 C 14.117188 17.703125 14.03125 17.644531 13.960938 17.574219 L 11.289062 14.902344 C 11.214844 14.832031 11.152344 14.75 11.113281 14.65625 C 11.070312 14.5625 11.050781 14.464844 11.046875 14.363281 C 11.046875 14.261719 11.0625 14.160156 11.101562 14.066406 C 11.140625 13.972656 11.195312 13.886719 11.269531 13.8125 C 11.339844 13.742188 11.425781 13.683594 11.519531 13.648438 C 11.613281 13.609375 11.714844 13.589844 11.816406 13.59375 C 11.917969 13.59375 12.019531 13.617188 12.113281 13.65625 C 12.207031 13.699219 12.289062 13.757812 12.359375 13.832031 L 14.472656 15.945312 L 17.976562 11.480469 Z M 17.996094 11.457031 " fill-opacity="1" fill-rule="nonzero"/></svg>